<?xml version="1.0" encoding="utf-8"?>
<!-- Generator: Adobe Illustrator 16.0.0, SVG Export Plug-In . SVG Version: 6.00 Build 0)  -->
<!DOCTYPE svg PUBLIC "-//W3C//DTD SVG 1.1//EN" "http://www.w3.org/Graphics/SVG/1.1/DTD/svg11.dtd">
<svg version="1.1" id="Layer_1" xmlns="http://www.w3.org/2000/svg" xmlns:xlink="http://www.w3.org/1999/xlink" x="0px" y="0px"
	 width="100px" height="100px" viewBox="0 0 100 100" enable-background="new 0 0 100 100" xml:space="preserve">
<path d="M50,1.588C23.27,1.589,1.524,23.305,1.523,50C1.524,76.695,23.27,98.412,50,98.412S98.476,76.695,98.477,50
	C98.476,23.305,76.73,1.589,50,1.588z M81.895,24.44c5.529,6.851,8.892,15.508,9.048,24.934c-1.84-0.372-9.634-1.83-18.947-1.83
	c-3.004,0-6.166,0.153-9.336,0.542c-0.267-0.648-0.538-1.3-0.817-1.954c-0.824-1.934-1.707-3.852-2.627-5.739
	C73.547,34.488,80.464,26.293,81.895,24.44z M50,9.164c10.328,0,19.77,3.839,26.982,10.161c-1.142,1.559-7.333,9.294-21.153,14.52
	C49.435,22.148,42.43,12.469,40.764,10.22C43.734,9.531,46.824,9.164,50,9.164z M32.408,13.138
	c1.412,1.942,8.422,11.725,14.982,23.329c-17.606,4.626-33.242,4.93-37.014,4.93c-0.154,0-0.287,0-0.4,0
	C12.685,28.902,21.129,18.519,32.408,13.138z M9.045,50.063c0-0.337,0.008-0.674,0.018-1.01c0.245,0.004,0.604,0.008,1.074,0.008
	c5.08,0,22.722-0.423,40.901-5.819c1.103,2.16,2.156,4.35,3.13,6.538c-0.456,0.132-0.911,0.266-1.361,0.411
	c-20.467,6.612-31.721,24.112-33.451,26.971C12.944,69.938,9.045,60.449,9.045,50.063z M50,90.963
	c-9.397,0-18.06-3.182-24.979-8.515c1.169-2.294,9.659-17.584,32.092-25.391c0.015-0.005,0.032-0.011,0.047-0.017
	c5.621,14.646,8.004,26.936,8.661,30.744C60.95,89.83,55.605,90.963,50,90.963z M73.194,83.752
	c-0.549-3.151-2.755-14.67-7.85-28.719c2.859-0.442,5.639-0.617,8.246-0.617c8.558-0.001,15.254,1.873,16.81,2.346
	C88.551,67.923,82.162,77.574,73.194,83.752z"/>
</svg>
