<?xml version="1.0" encoding="UTF-8" standalone="no"?>
<svg width="98px" height="98px" viewBox="0 0 98 98" version="1.1" xmlns="http://www.w3.org/2000/svg" xmlns:xlink="http://www.w3.org/1999/xlink" xmlns:sketch="http://www.bohemiancoding.com/sketch/ns">
    <!-- Generator: Sketch 3.0.4 (8054) - http://www.bohemiancoding.com/sketch -->
    <title>Slice 2</title>
    <desc>Created with Sketch.</desc>
    <defs></defs>
    <g id="Page-1" stroke="none" stroke-width="1" fill="none" fill-rule="evenodd" sketch:type="MSPage">
        <g id="dribbble" sketch:type="MSLayerGroup" transform="translate(1.000000, 1.000000)" fill="#FFFFFF">
            <path d="M48,-0.412 C21.27,-0.411 -0.476,21.305 -0.477,48 C-0.476,74.695 21.27,96.412 48,96.412 C74.73,96.412 96.476,74.695 96.477,48 C96.476,21.305 74.73,-0.411 48,-0.412 L48,-0.412 Z M79.895,22.44 C85.424,29.291 88.787,37.948 88.943,47.374 C87.103,47.002 79.309,45.544 69.996,45.544 C66.992,45.544 63.83,45.697 60.66,46.086 C60.393,45.438 60.122,44.786 59.843,44.132 C59.019,42.198 58.136,40.28 57.216,38.393 C71.547,32.488 78.464,24.293 79.895,22.44 L79.895,22.44 Z M48,7.164 C58.328,7.164 67.77,11.003 74.982,17.325 C73.84,18.884 67.649,26.619 53.829,31.845 C47.435,20.148 40.43,10.469 38.764,8.22 C41.734,7.531 44.824,7.164 48,7.164 L48,7.164 Z M30.408,11.138 C31.82,13.08 38.83,22.863 45.39,34.467 C27.784,39.093 12.148,39.397 8.376,39.397 L7.976,39.397 C10.685,26.902 19.129,16.519 30.408,11.138 L30.408,11.138 Z M7.045,48.063 C7.045,47.726 7.053,47.389 7.063,47.053 C7.308,47.057 7.667,47.061 8.137,47.061 C13.217,47.061 30.859,46.638 49.038,41.242 C50.141,43.402 51.194,45.592 52.168,47.78 C51.712,47.912 51.257,48.046 50.807,48.191 C30.34,54.803 19.086,72.303 17.356,75.162 C10.944,67.938 7.045,58.449 7.045,48.063 L7.045,48.063 Z M48,88.963 C38.603,88.963 29.94,85.781 23.021,80.448 C24.19,78.154 32.68,62.864 55.113,55.057 C55.128,55.052 55.145,55.046 55.16,55.04 C60.781,69.686 63.164,81.976 63.821,85.784 C58.95,87.83 53.605,88.963 48,88.963 L48,88.963 Z M71.194,81.752 C70.645,78.601 68.439,67.082 63.344,53.033 C66.203,52.591 68.983,52.416 71.59,52.416 C80.148,52.415 86.844,54.289 88.4,54.762 C86.551,65.923 80.162,75.574 71.194,81.752 L71.194,81.752 Z" id="Shape" sketch:type="MSShapeGroup"></path>
        </g>
    </g>
</svg>