<?xml version="1.0" encoding="UTF-8" standalone="no"?>
<svg width="90px" height="86px" viewBox="0 0 90 86" version="1.1" xmlns="http://www.w3.org/2000/svg" xmlns:xlink="http://www.w3.org/1999/xlink" xmlns:sketch="http://www.bohemiancoding.com/sketch/ns">
    <!-- Generator: Sketch 3.0.4 (8054) - http://www.bohemiancoding.com/sketch -->
    <title>Slice 2</title>
    <desc>Created with Sketch.</desc>
    <defs></defs>
    <g id="Page-1" stroke="none" stroke-width="1" fill="none" fill-rule="evenodd" sketch:type="MSPage">
        <g id="linkedin" sketch:type="MSLayerGroup" fill="#FFFFFF">
            <path d="M90,52.727 L90,86 L70.71,86 L70.71,54.955 C70.71,47.156 67.92,41.834 60.937,41.834 C55.607,41.834 52.435,45.421 51.04,48.89 C50.531,50.131 50.4,51.857 50.4,53.594 L50.4,86 L31.104,86 C31.104,86 31.364,33.42 31.104,27.972 L50.399,27.972 L50.399,36.197 C50.36,36.259 50.309,36.325 50.272,36.385 L50.399,36.385 L50.399,36.197 C52.962,32.249 57.54,26.609 67.787,26.609 C80.483,26.609 90,34.903 90,52.727 L90,52.727 Z M10.919,0 C4.318,0 0,4.33 0,10.024 C0,15.594 4.193,20.055 10.663,20.055 L10.792,20.055 C17.521,20.055 21.706,15.595 21.706,10.024 C21.579,4.33 17.521,0 10.919,0 L10.919,0 Z M1.146,86 L20.435,86 L20.435,27.972 L1.146,27.972 L1.146,86 L1.146,86 Z" id="LinkedIn" sketch:type="MSShapeGroup"></path>
        </g>
    </g>
</svg>