<?xml version="1.0" encoding="UTF-8" standalone="no"?>
<svg width="16px" height="13px" viewBox="0 0 16 13" version="1.1" xmlns="http://www.w3.org/2000/svg" xmlns:xlink="http://www.w3.org/1999/xlink" xmlns:sketch="http://www.bohemiancoding.com/sketch/ns">
    <!-- Generator: Sketch 3.0.4 (8054) - http://www.bohemiancoding.com/sketch -->
    <title>Slice 2</title>
    <desc>Created with Sketch.</desc>
    <defs></defs>
    <g id="Page-1" stroke="none" stroke-width="1" fill="none" fill-rule="evenodd" sketch:type="MSPage">
        <g id="twitter" sketch:type="MSLayerGroup" fill="#FFFFFF">
            <path d="M16.001,1.038 C15.412,1.299 14.78,1.476 14.116,1.555 C14.794,1.149 15.313,0.505 15.559,-0.26 C14.924,0.116 14.221,0.389 13.473,0.537 C12.875,-0.102 12.022,-0.5 11.078,-0.5 C9.265,-0.5 7.795,0.97 7.795,2.782 C7.795,3.039 7.824,3.29 7.88,3.53 C5.152,3.393 2.733,2.086 1.114,0.1 C0.831,0.584 0.67,1.148 0.67,1.75 C0.67,2.889 1.25,3.894 2.13,4.482 C1.592,4.464 1.086,4.316 0.643,4.07 L0.643,4.111 C0.643,5.701 1.775,7.028 3.276,7.33 C3.001,7.404 2.711,7.445 2.411,7.445 C2.199,7.445 1.994,7.424 1.793,7.385 C2.211,8.689 3.423,9.638 4.859,9.665 C3.736,10.545 2.32,11.069 0.782,11.069 C0.517,11.069 0.256,11.053 -0.001,11.024 C1.452,11.956 3.177,12.5 5.031,12.5 C11.069,12.5 14.371,7.498 14.371,3.16 L14.36,2.735 C15.004,2.274 15.562,1.696 16.001,1.038 L16.001,1.038 Z" id="Shape" sketch:type="MSShapeGroup"></path>
        </g>
    </g>
</svg>